<svg xmlns="http://www.w3.org/2000/svg" xmlns:xlink="http://www.w3.org/1999/xlink" viewBox="0 0 1024 1024"><defs><style>.cls-1{fill:none;}.cls-2{isolation:isolate;}.cls-3{fill:#fee04d;}.cls-4{clip-path:url(#clip-path);}.cls-5{fill:#fed206;}.cls-6{mix-blend-mode:multiply;}.cls-7{fill:#e53825;}.cls-8{fill:#3e66b0;}.cls-9{fill:#fff;}</style><clipPath id="clip-path"><rect id="SVGID" class="cls-1" width="1024" height="1024" rx="100"/></clipPath></defs><title>app-icon</title><g class="cls-2"><g id="app-icon"><rect class="cls-3" width="1024" height="1024" rx="100"/><g class="cls-4"><path class="cls-5" d="M1037.28,26.72c-2.15-2.16-4-4.72-7.28-4.72a8,8,0,0,0-8,8c0,3.25,2.56,5.13,4.72,7.28s4,4.72,7.28,4.72a8,8,0,0,0,8-8C1042,30.75,1039.44,28.87,1037.28,26.72Z"/><path class="cls-5" d="M1037.28,106.72c-2.15-2.16-4-4.72-7.28-4.72a8,8,0,0,0-8,8c0,3.25,2.56,5.13,4.72,7.28s4,4.72,7.28,4.72a8,8,0,0,0,8-8C1042,110.75,1039.44,108.87,1037.28,106.72Z"/><path class="cls-5" d="M1037.28,186.72c-2.15-2.16-4-4.72-7.28-4.72a8,8,0,0,0-8,8c0,3.25,2.56,5.13,4.72,7.28s4,4.72,7.28,4.72a8,8,0,0,0,8-8C1042,190.75,1039.44,188.87,1037.28,186.72Z"/><path class="cls-5" d="M1037.28,266.72c-2.15-2.16-4-4.72-7.28-4.72a8,8,0,0,0-8,8c0,3.25,2.56,5.13,4.72,7.28s4,4.72,7.28,4.72a8,8,0,0,0,8-8C1042,270.75,1039.44,268.87,1037.28,266.72Z"/><path class="cls-5" d="M1037.28,346.72c-2.15-2.16-4-4.72-7.28-4.72a8,8,0,0,0-8,8c0,3.25,2.56,5.13,4.72,7.28s4,4.72,7.28,4.72a8,8,0,0,0,8-8C1042,350.75,1039.44,348.87,1037.28,346.72Z"/><path class="cls-5" d="M1037.28,426.72c-2.15-2.16-4-4.72-7.28-4.72a8,8,0,0,0-8,8c0,3.25,2.56,5.13,4.72,7.28s4,4.72,7.28,4.72a8,8,0,0,0,8-8C1042,430.75,1039.44,428.87,1037.28,426.72Z"/><path class="cls-5" d="M1037.28,506.72c-2.15-2.16-4-4.72-7.28-4.72a8,8,0,0,0-8,8c0,3.25,2.56,5.13,4.72,7.28s4,4.72,7.28,4.72a8,8,0,0,0,8-8C1042,510.75,1039.44,508.87,1037.28,506.72Z"/><path class="cls-5" d="M1037.28,586.72c-2.15-2.16-4-4.72-7.28-4.72a8,8,0,0,0-8,8c0,3.25,2.56,5.13,4.72,7.28s4,4.72,7.28,4.72a8,8,0,0,0,8-8C1042,590.75,1039.44,588.87,1037.28,586.72Z"/><path class="cls-5" d="M1037.28,666.72c-2.15-2.16-4-4.72-7.28-4.72a8,8,0,0,0-8,8c0,3.25,2.56,5.13,4.72,7.28s4,4.72,7.28,4.72a8,8,0,0,0,8-8C1042,670.75,1039.44,668.87,1037.28,666.72Z"/><path class="cls-5" d="M1037.28,746.72c-2.15-2.16-4-4.72-7.28-4.72a8,8,0,0,0-8,8c0,3.25,2.56,5.13,4.72,7.28s4,4.72,7.28,4.72a8,8,0,0,0,8-8C1042,750.75,1039.44,748.87,1037.28,746.72Z"/><path class="cls-5" d="M1037.28,826.72c-2.15-2.16-4-4.72-7.28-4.72a8,8,0,0,0-8,8c0,3.25,2.56,5.13,4.72,7.28s4,4.72,7.28,4.72a8,8,0,0,0,8-8C1042,830.75,1039.44,828.87,1037.28,826.72Z"/><path class="cls-5" d="M1037.28,906.72c-2.15-2.16-4-4.72-7.28-4.72a8,8,0,0,0-8,8c0,3.25,2.56,5.13,4.72,7.28s4,4.72,7.28,4.72a8,8,0,0,0,8-8C1042,910.75,1039.44,908.87,1037.28,906.72Z"/><path class="cls-5" d="M1037.28,986.72c-2.15-2.16-4-4.72-7.28-4.72a8,8,0,0,0-8,8c0,3.25,2.56,5.13,4.72,7.28s4,4.72,7.28,4.72a8,8,0,0,0,8-8C1042,990.75,1039.44,988.87,1037.28,986.72Z"/><path class="cls-5" d="M957.28,26.72c-2.15-2.16-4-4.72-7.28-4.72a8,8,0,0,0-8,8c0,3.25,2.56,5.13,4.72,7.28S950.75,42,954,42a8,8,0,0,0,8-8C962,30.75,959.44,28.87,957.28,26.72Z"/><path class="cls-5" d="M957.28,106.72c-2.15-2.16-4-4.72-7.28-4.72a8,8,0,0,0-8,8c0,3.25,2.56,5.13,4.72,7.28s4,4.72,7.28,4.72a8,8,0,0,0,8-8C962,110.75,959.44,108.87,957.28,106.72Z"/><path class="cls-5" d="M957.28,186.72c-2.15-2.16-4-4.72-7.28-4.72a8,8,0,0,0-8,8c0,3.25,2.56,5.13,4.72,7.28s4,4.72,7.28,4.72a8,8,0,0,0,8-8C962,190.75,959.44,188.87,957.28,186.72Z"/><path class="cls-5" d="M957.28,266.72c-2.15-2.16-4-4.72-7.28-4.72a8,8,0,0,0-8,8c0,3.25,2.56,5.13,4.72,7.28s4,4.72,7.28,4.72a8,8,0,0,0,8-8C962,270.75,959.44,268.87,957.28,266.72Z"/><path class="cls-5" d="M957.28,346.72c-2.15-2.16-4-4.72-7.28-4.72a8,8,0,0,0-8,8c0,3.25,2.56,5.13,4.72,7.28s4,4.72,7.28,4.72a8,8,0,0,0,8-8C962,350.75,959.44,348.87,957.28,346.72Z"/><path class="cls-5" d="M957.28,426.72c-2.15-2.16-4-4.72-7.28-4.72a8,8,0,0,0-8,8c0,3.25,2.56,5.13,4.72,7.28s4,4.72,7.28,4.72a8,8,0,0,0,8-8C962,430.75,959.44,428.87,957.28,426.72Z"/><path class="cls-5" d="M957.28,506.72c-2.15-2.16-4-4.72-7.28-4.72a8,8,0,0,0-8,8c0,3.25,2.56,5.13,4.72,7.28s4,4.72,7.28,4.72a8,8,0,0,0,8-8C962,510.75,959.44,508.87,957.28,506.72Z"/><path class="cls-5" d="M957.28,586.72c-2.15-2.16-4-4.72-7.28-4.72a8,8,0,0,0-8,8c0,3.25,2.56,5.13,4.72,7.28s4,4.72,7.28,4.72a8,8,0,0,0,8-8C962,590.75,959.44,588.87,957.28,586.72Z"/><path class="cls-5" d="M957.28,666.72c-2.15-2.16-4-4.72-7.28-4.72a8,8,0,0,0-8,8c0,3.25,2.56,5.13,4.72,7.28s4,4.72,7.28,4.72a8,8,0,0,0,8-8C962,670.75,959.44,668.87,957.28,666.72Z"/><path class="cls-5" d="M957.28,746.72c-2.15-2.16-4-4.72-7.28-4.72a8,8,0,0,0-8,8c0,3.25,2.56,5.13,4.72,7.28s4,4.72,7.28,4.72a8,8,0,0,0,8-8C962,750.75,959.44,748.87,957.28,746.72Z"/><path class="cls-5" d="M957.28,826.72c-2.15-2.16-4-4.72-7.28-4.72a8,8,0,0,0-8,8c0,3.25,2.56,5.13,4.72,7.28s4,4.72,7.28,4.72a8,8,0,0,0,8-8C962,830.75,959.44,828.87,957.28,826.72Z"/><path class="cls-5" d="M957.28,906.72c-2.15-2.16-4-4.72-7.28-4.72a8,8,0,0,0-8,8c0,3.25,2.56,5.13,4.72,7.28s4,4.72,7.28,4.72a8,8,0,0,0,8-8C962,910.75,959.44,908.87,957.28,906.72Z"/><path class="cls-5" d="M957.28,986.72c-2.15-2.16-4-4.72-7.28-4.72a8,8,0,0,0-8,8c0,3.25,2.56,5.13,4.72,7.28s4,4.72,7.28,4.72a8,8,0,0,0,8-8C962,990.75,959.44,988.87,957.28,986.72Z"/><path class="cls-5" d="M877.28,26.72c-2.15-2.16-4-4.72-7.28-4.72a8,8,0,0,0-8,8c0,3.25,2.56,5.13,4.72,7.28S870.75,42,874,42a8,8,0,0,0,8-8C882,30.75,879.44,28.87,877.28,26.72Z"/><path class="cls-5" d="M877.28,106.72c-2.15-2.16-4-4.72-7.28-4.72a8,8,0,0,0-8,8c0,3.25,2.56,5.13,4.72,7.28s4,4.72,7.28,4.72a8,8,0,0,0,8-8C882,110.75,879.44,108.87,877.28,106.72Z"/><path class="cls-5" d="M877.28,186.72c-2.15-2.16-4-4.72-7.28-4.72a8,8,0,0,0-8,8c0,3.25,2.56,5.13,4.72,7.28s4,4.72,7.28,4.72a8,8,0,0,0,8-8C882,190.75,879.44,188.87,877.28,186.72Z"/><path class="cls-5" d="M877.28,266.72c-2.15-2.16-4-4.72-7.28-4.72a8,8,0,0,0-8,8c0,3.25,2.56,5.13,4.72,7.28s4,4.72,7.28,4.72a8,8,0,0,0,8-8C882,270.75,879.44,268.87,877.28,266.72Z"/><path class="cls-5" d="M877.28,346.72c-2.15-2.16-4-4.72-7.28-4.72a8,8,0,0,0-8,8c0,3.25,2.56,5.13,4.72,7.28s4,4.72,7.28,4.72a8,8,0,0,0,8-8C882,350.75,879.44,348.87,877.28,346.72Z"/><path class="cls-5" d="M877.28,426.72c-2.15-2.16-4-4.72-7.28-4.72a8,8,0,0,0-8,8c0,3.25,2.56,5.13,4.72,7.28s4,4.72,7.28,4.72a8,8,0,0,0,8-8C882,430.75,879.44,428.87,877.28,426.72Z"/><path class="cls-5" d="M877.28,506.72c-2.15-2.16-4-4.72-7.28-4.72a8,8,0,0,0-8,8c0,3.25,2.56,5.13,4.72,7.28s4,4.72,7.28,4.72a8,8,0,0,0,8-8C882,510.75,879.44,508.87,877.28,506.72Z"/><path class="cls-5" d="M877.28,586.72c-2.15-2.16-4-4.72-7.28-4.72a8,8,0,0,0-8,8c0,3.25,2.56,5.13,4.72,7.28s4,4.72,7.28,4.72a8,8,0,0,0,8-8C882,590.75,879.44,588.87,877.28,586.72Z"/><path class="cls-5" d="M877.28,666.72c-2.15-2.16-4-4.72-7.28-4.72a8,8,0,0,0-8,8c0,3.25,2.56,5.13,4.72,7.28s4,4.72,7.28,4.72a8,8,0,0,0,8-8C882,670.75,879.44,668.87,877.28,666.72Z"/><path class="cls-5" d="M877.28,746.72c-2.15-2.16-4-4.72-7.28-4.72a8,8,0,0,0-8,8c0,3.25,2.56,5.13,4.72,7.28s4,4.72,7.28,4.72a8,8,0,0,0,8-8C882,750.75,879.44,748.87,877.28,746.72Z"/><path class="cls-5" d="M877.28,826.72c-2.15-2.16-4-4.72-7.28-4.72a8,8,0,0,0-8,8c0,3.25,2.56,5.13,4.72,7.28s4,4.72,7.28,4.72a8,8,0,0,0,8-8C882,830.75,879.44,828.87,877.28,826.72Z"/><path class="cls-5" d="M877.28,906.72c-2.15-2.16-4-4.72-7.28-4.72a8,8,0,0,0-8,8c0,3.25,2.56,5.13,4.72,7.28s4,4.72,7.28,4.72a8,8,0,0,0,8-8C882,910.75,879.44,908.87,877.28,906.72Z"/><path class="cls-5" d="M877.28,986.72c-2.15-2.16-4-4.72-7.28-4.72a8,8,0,0,0-8,8c0,3.25,2.56,5.13,4.72,7.28s4,4.72,7.28,4.72a8,8,0,0,0,8-8C882,990.75,879.44,988.87,877.28,986.72Z"/><path class="cls-5" d="M797.28,26.72c-2.15-2.16-4-4.72-7.28-4.72a8,8,0,0,0-8,8c0,3.25,2.56,5.13,4.72,7.28S790.75,42,794,42a8,8,0,0,0,8-8C802,30.75,799.44,28.87,797.28,26.72Z"/><path class="cls-5" d="M797.28,106.72c-2.15-2.16-4-4.72-7.28-4.72a8,8,0,0,0-8,8c0,3.25,2.56,5.13,4.72,7.28s4,4.72,7.28,4.72a8,8,0,0,0,8-8C802,110.75,799.44,108.87,797.28,106.72Z"/><path class="cls-5" d="M797.28,186.72c-2.15-2.16-4-4.72-7.28-4.72a8,8,0,0,0-8,8c0,3.25,2.56,5.13,4.72,7.28s4,4.72,7.28,4.72a8,8,0,0,0,8-8C802,190.75,799.44,188.87,797.28,186.72Z"/><path class="cls-5" d="M797.28,266.72c-2.15-2.16-4-4.72-7.28-4.72a8,8,0,0,0-8,8c0,3.25,2.56,5.13,4.72,7.28s4,4.72,7.28,4.72a8,8,0,0,0,8-8C802,270.75,799.44,268.87,797.28,266.72Z"/><path class="cls-5" d="M797.28,346.72c-2.15-2.16-4-4.72-7.28-4.72a8,8,0,0,0-8,8c0,3.25,2.56,5.13,4.72,7.28s4,4.72,7.28,4.72a8,8,0,0,0,8-8C802,350.75,799.44,348.87,797.28,346.72Z"/><path class="cls-5" d="M797.28,426.72c-2.15-2.16-4-4.72-7.28-4.72a8,8,0,0,0-8,8c0,3.25,2.56,5.13,4.72,7.28s4,4.72,7.28,4.72a8,8,0,0,0,8-8C802,430.75,799.44,428.87,797.28,426.72Z"/><path class="cls-5" d="M797.28,506.72c-2.15-2.16-4-4.72-7.28-4.72a8,8,0,0,0-8,8c0,3.25,2.56,5.13,4.72,7.28s4,4.72,7.28,4.72a8,8,0,0,0,8-8C802,510.75,799.44,508.87,797.28,506.72Z"/><path class="cls-5" d="M797.28,586.72c-2.15-2.16-4-4.72-7.28-4.72a8,8,0,0,0-8,8c0,3.25,2.56,5.13,4.72,7.28s4,4.72,7.28,4.72a8,8,0,0,0,8-8C802,590.75,799.44,588.87,797.28,586.72Z"/><path class="cls-5" d="M797.28,666.72c-2.15-2.16-4-4.72-7.28-4.72a8,8,0,0,0-8,8c0,3.25,2.56,5.13,4.72,7.28s4,4.72,7.28,4.72a8,8,0,0,0,8-8C802,670.75,799.44,668.87,797.28,666.72Z"/><path class="cls-5" d="M797.28,746.72c-2.15-2.16-4-4.72-7.28-4.72a8,8,0,0,0-8,8c0,3.25,2.56,5.13,4.72,7.28s4,4.72,7.28,4.72a8,8,0,0,0,8-8C802,750.75,799.44,748.87,797.28,746.72Z"/><path class="cls-5" d="M797.28,826.72c-2.15-2.16-4-4.72-7.28-4.72a8,8,0,0,0-8,8c0,3.25,2.56,5.13,4.72,7.28s4,4.72,7.28,4.72a8,8,0,0,0,8-8C802,830.75,799.44,828.87,797.28,826.72Z"/><path class="cls-5" d="M797.28,906.72c-2.15-2.16-4-4.72-7.28-4.72a8,8,0,0,0-8,8c0,3.25,2.56,5.13,4.72,7.28s4,4.72,7.28,4.72a8,8,0,0,0,8-8C802,910.75,799.44,908.87,797.28,906.72Z"/><path class="cls-5" d="M797.28,986.72c-2.15-2.16-4-4.72-7.28-4.72a8,8,0,0,0-8,8c0,3.25,2.56,5.13,4.72,7.28s4,4.72,7.28,4.72a8,8,0,0,0,8-8C802,990.75,799.44,988.87,797.28,986.72Z"/><path class="cls-5" d="M717.28,26.72c-2.15-2.16-4-4.72-7.28-4.72a8,8,0,0,0-8,8c0,3.25,2.56,5.13,4.72,7.28S710.75,42,714,42a8,8,0,0,0,8-8C722,30.75,719.44,28.87,717.28,26.72Z"/><path class="cls-5" d="M717.28,106.72c-2.15-2.16-4-4.72-7.28-4.72a8,8,0,0,0-8,8c0,3.25,2.56,5.13,4.72,7.28s4,4.72,7.28,4.72a8,8,0,0,0,8-8C722,110.75,719.44,108.87,717.28,106.72Z"/><path class="cls-5" d="M717.28,186.72c-2.15-2.16-4-4.72-7.28-4.72a8,8,0,0,0-8,8c0,3.25,2.56,5.13,4.72,7.28s4,4.72,7.28,4.72a8,8,0,0,0,8-8C722,190.75,719.44,188.87,717.28,186.72Z"/><path class="cls-5" d="M717.28,266.72c-2.15-2.16-4-4.72-7.28-4.72a8,8,0,0,0-8,8c0,3.25,2.56,5.13,4.72,7.28s4,4.72,7.28,4.72a8,8,0,0,0,8-8C722,270.75,719.44,268.87,717.28,266.72Z"/><path class="cls-5" d="M717.28,346.72c-2.15-2.16-4-4.72-7.28-4.72a8,8,0,0,0-8,8c0,3.25,2.56,5.13,4.72,7.28s4,4.72,7.28,4.72a8,8,0,0,0,8-8C722,350.75,719.44,348.87,717.28,346.72Z"/><path class="cls-5" d="M717.28,426.72c-2.15-2.16-4-4.72-7.28-4.72a8,8,0,0,0-8,8c0,3.25,2.56,5.13,4.72,7.28s4,4.72,7.28,4.72a8,8,0,0,0,8-8C722,430.75,719.44,428.87,717.28,426.72Z"/><path class="cls-5" d="M717.28,506.72c-2.15-2.16-4-4.72-7.28-4.72a8,8,0,0,0-8,8c0,3.25,2.56,5.13,4.72,7.28s4,4.72,7.28,4.72a8,8,0,0,0,8-8C722,510.75,719.44,508.87,717.28,506.72Z"/><path class="cls-5" d="M717.28,586.72c-2.15-2.16-4-4.72-7.28-4.72a8,8,0,0,0-8,8c0,3.25,2.56,5.13,4.72,7.28s4,4.72,7.28,4.72a8,8,0,0,0,8-8C722,590.75,719.44,588.87,717.28,586.72Z"/><path class="cls-5" d="M717.28,666.72c-2.15-2.16-4-4.72-7.28-4.72a8,8,0,0,0-8,8c0,3.25,2.56,5.13,4.72,7.28s4,4.72,7.28,4.72a8,8,0,0,0,8-8C722,670.75,719.44,668.87,717.28,666.72Z"/><path class="cls-5" d="M717.28,746.72c-2.15-2.16-4-4.72-7.28-4.72a8,8,0,0,0-8,8c0,3.25,2.56,5.13,4.72,7.28s4,4.72,7.28,4.72a8,8,0,0,0,8-8C722,750.75,719.44,748.87,717.28,746.72Z"/><path class="cls-5" d="M717.28,826.72c-2.15-2.16-4-4.72-7.28-4.72a8,8,0,0,0-8,8c0,3.25,2.56,5.13,4.72,7.28s4,4.72,7.28,4.72a8,8,0,0,0,8-8C722,830.75,719.44,828.87,717.28,826.72Z"/><path class="cls-5" d="M717.28,906.72c-2.15-2.16-4-4.72-7.28-4.72a8,8,0,0,0-8,8c0,3.25,2.56,5.13,4.72,7.28s4,4.72,7.28,4.72a8,8,0,0,0,8-8C722,910.75,719.44,908.87,717.28,906.72Z"/><path class="cls-5" d="M717.28,986.72c-2.15-2.16-4-4.72-7.28-4.72a8,8,0,0,0-8,8c0,3.25,2.56,5.13,4.72,7.28s4,4.72,7.28,4.72a8,8,0,0,0,8-8C722,990.75,719.44,988.87,717.28,986.72Z"/><path class="cls-5" d="M637.28,26.72c-2.15-2.16-4-4.72-7.28-4.72a8,8,0,0,0-8,8c0,3.25,2.56,5.13,4.72,7.28S630.75,42,634,42a8,8,0,0,0,8-8C642,30.75,639.44,28.87,637.28,26.72Z"/><path class="cls-5" d="M637.28,106.72c-2.15-2.16-4-4.72-7.28-4.72a8,8,0,0,0-8,8c0,3.25,2.56,5.13,4.72,7.28s4,4.72,7.28,4.72a8,8,0,0,0,8-8C642,110.75,639.44,108.87,637.28,106.72Z"/><path class="cls-5" d="M637.28,186.72c-2.15-2.16-4-4.72-7.28-4.72a8,8,0,0,0-8,8c0,3.25,2.56,5.13,4.72,7.28s4,4.72,7.28,4.72a8,8,0,0,0,8-8C642,190.75,639.44,188.87,637.28,186.72Z"/><path class="cls-5" d="M637.28,266.72c-2.15-2.16-4-4.72-7.28-4.72a8,8,0,0,0-8,8c0,3.25,2.56,5.13,4.72,7.28s4,4.72,7.28,4.72a8,8,0,0,0,8-8C642,270.75,639.44,268.87,637.28,266.72Z"/><path class="cls-5" d="M637.28,346.72c-2.15-2.16-4-4.72-7.28-4.72a8,8,0,0,0-8,8c0,3.25,2.56,5.13,4.72,7.28s4,4.72,7.28,4.72a8,8,0,0,0,8-8C642,350.75,639.44,348.87,637.28,346.72Z"/><path class="cls-5" d="M637.28,426.72c-2.15-2.16-4-4.72-7.28-4.72a8,8,0,0,0-8,8c0,3.25,2.56,5.13,4.72,7.28s4,4.72,7.28,4.72a8,8,0,0,0,8-8C642,430.75,639.44,428.87,637.28,426.72Z"/><path class="cls-5" d="M637.28,506.72c-2.15-2.16-4-4.72-7.28-4.72a8,8,0,0,0-8,8c0,3.25,2.56,5.13,4.72,7.28s4,4.72,7.28,4.72a8,8,0,0,0,8-8C642,510.75,639.44,508.87,637.28,506.72Z"/><path class="cls-5" d="M637.28,586.72c-2.15-2.16-4-4.72-7.28-4.72a8,8,0,0,0-8,8c0,3.25,2.56,5.13,4.72,7.28s4,4.72,7.28,4.72a8,8,0,0,0,8-8C642,590.75,639.44,588.87,637.28,586.72Z"/><path class="cls-5" d="M637.28,666.72c-2.15-2.16-4-4.72-7.28-4.72a8,8,0,0,0-8,8c0,3.25,2.56,5.13,4.72,7.28s4,4.72,7.28,4.72a8,8,0,0,0,8-8C642,670.75,639.44,668.87,637.28,666.72Z"/><path class="cls-5" d="M637.28,746.72c-2.15-2.16-4-4.72-7.28-4.72a8,8,0,0,0-8,8c0,3.25,2.56,5.13,4.72,7.28s4,4.72,7.28,4.72a8,8,0,0,0,8-8C642,750.75,639.44,748.87,637.28,746.72Z"/><path class="cls-5" d="M637.28,826.72c-2.15-2.16-4-4.72-7.28-4.72a8,8,0,0,0-8,8c0,3.25,2.56,5.13,4.72,7.28s4,4.72,7.28,4.72a8,8,0,0,0,8-8C642,830.75,639.44,828.87,637.28,826.72Z"/><path class="cls-5" d="M637.28,906.72c-2.15-2.16-4-4.72-7.28-4.72a8,8,0,0,0-8,8c0,3.25,2.56,5.13,4.72,7.28s4,4.72,7.28,4.72a8,8,0,0,0,8-8C642,910.75,639.44,908.87,637.28,906.72Z"/><path class="cls-5" d="M637.28,986.72c-2.15-2.16-4-4.72-7.28-4.72a8,8,0,0,0-8,8c0,3.25,2.56,5.13,4.72,7.28s4,4.72,7.28,4.72a8,8,0,0,0,8-8C642,990.75,639.44,988.87,637.28,986.72Z"/><path class="cls-5" d="M557.28,26.72c-2.15-2.16-4-4.72-7.28-4.72a8,8,0,0,0-8,8c0,3.25,2.56,5.13,4.72,7.28S550.75,42,554,42a8,8,0,0,0,8-8C562,30.75,559.44,28.87,557.28,26.72Z"/><path class="cls-5" d="M557.28,106.72c-2.15-2.16-4-4.72-7.28-4.72a8,8,0,0,0-8,8c0,3.25,2.56,5.13,4.72,7.28s4,4.72,7.28,4.72a8,8,0,0,0,8-8C562,110.75,559.44,108.87,557.28,106.72Z"/><path class="cls-5" d="M557.28,186.72c-2.15-2.16-4-4.72-7.28-4.72a8,8,0,0,0-8,8c0,3.25,2.56,5.13,4.72,7.28s4,4.72,7.28,4.72a8,8,0,0,0,8-8C562,190.75,559.44,188.87,557.28,186.72Z"/><path class="cls-5" d="M557.28,266.72c-2.15-2.16-4-4.72-7.28-4.72a8,8,0,0,0-8,8c0,3.25,2.56,5.13,4.72,7.28s4,4.72,7.28,4.72a8,8,0,0,0,8-8C562,270.75,559.44,268.87,557.28,266.72Z"/><path class="cls-5" d="M557.28,346.72c-2.15-2.16-4-4.72-7.28-4.72a8,8,0,0,0-8,8c0,3.25,2.56,5.13,4.72,7.28s4,4.72,7.28,4.72a8,8,0,0,0,8-8C562,350.75,559.44,348.87,557.28,346.72Z"/><path class="cls-5" d="M557.28,426.72c-2.15-2.16-4-4.72-7.28-4.72a8,8,0,0,0-8,8c0,3.25,2.56,5.13,4.72,7.28s4,4.72,7.28,4.72a8,8,0,0,0,8-8C562,430.75,559.44,428.87,557.28,426.72Z"/><path class="cls-5" d="M557.28,506.72c-2.15-2.16-4-4.72-7.28-4.72a8,8,0,0,0-8,8c0,3.25,2.56,5.13,4.72,7.28s4,4.72,7.28,4.72a8,8,0,0,0,8-8C562,510.75,559.44,508.87,557.28,506.72Z"/><path class="cls-5" d="M557.28,586.72c-2.15-2.16-4-4.72-7.28-4.72a8,8,0,0,0-8,8c0,3.25,2.56,5.13,4.72,7.28s4,4.72,7.28,4.72a8,8,0,0,0,8-8C562,590.75,559.44,588.87,557.28,586.72Z"/><path class="cls-5" d="M557.28,666.72c-2.15-2.16-4-4.72-7.28-4.72a8,8,0,0,0-8,8c0,3.25,2.56,5.13,4.72,7.28s4,4.72,7.28,4.72a8,8,0,0,0,8-8C562,670.75,559.44,668.87,557.28,666.72Z"/><path class="cls-5" d="M557.28,746.72c-2.15-2.16-4-4.72-7.28-4.72a8,8,0,0,0-8,8c0,3.25,2.56,5.13,4.72,7.28s4,4.72,7.28,4.72a8,8,0,0,0,8-8C562,750.75,559.44,748.87,557.28,746.72Z"/><path class="cls-5" d="M557.28,826.72c-2.15-2.16-4-4.72-7.28-4.72a8,8,0,0,0-8,8c0,3.25,2.56,5.13,4.72,7.28s4,4.72,7.28,4.72a8,8,0,0,0,8-8C562,830.75,559.44,828.87,557.28,826.72Z"/><path class="cls-5" d="M557.28,906.72c-2.15-2.16-4-4.72-7.28-4.72a8,8,0,0,0-8,8c0,3.25,2.56,5.13,4.72,7.28s4,4.72,7.28,4.72a8,8,0,0,0,8-8C562,910.75,559.44,908.87,557.28,906.72Z"/><path class="cls-5" d="M557.28,986.72c-2.15-2.16-4-4.72-7.28-4.72a8,8,0,0,0-8,8c0,3.25,2.56,5.13,4.72,7.28s4,4.72,7.28,4.72a8,8,0,0,0,8-8C562,990.75,559.44,988.87,557.28,986.72Z"/><path class="cls-5" d="M477.28,26.72c-2.15-2.16-4-4.72-7.28-4.72a8,8,0,0,0-8,8c0,3.25,2.56,5.13,4.72,7.28S470.75,42,474,42a8,8,0,0,0,8-8C482,30.75,479.44,28.87,477.28,26.72Z"/><path class="cls-5" d="M477.28,106.72c-2.15-2.16-4-4.72-7.28-4.72a8,8,0,0,0-8,8c0,3.25,2.56,5.13,4.72,7.28s4,4.72,7.28,4.72a8,8,0,0,0,8-8C482,110.75,479.44,108.87,477.28,106.72Z"/><path class="cls-5" d="M477.28,186.72c-2.15-2.16-4-4.72-7.28-4.72a8,8,0,0,0-8,8c0,3.25,2.56,5.13,4.72,7.28s4,4.72,7.28,4.72a8,8,0,0,0,8-8C482,190.75,479.44,188.87,477.28,186.72Z"/><path class="cls-5" d="M477.28,266.72c-2.15-2.16-4-4.72-7.28-4.72a8,8,0,0,0-8,8c0,3.25,2.56,5.13,4.72,7.28s4,4.72,7.28,4.72a8,8,0,0,0,8-8C482,270.75,479.44,268.87,477.28,266.72Z"/><path class="cls-5" d="M477.28,346.72c-2.15-2.16-4-4.72-7.28-4.72a8,8,0,0,0-8,8c0,3.25,2.56,5.13,4.72,7.28s4,4.72,7.28,4.72a8,8,0,0,0,8-8C482,350.75,479.44,348.87,477.28,346.72Z"/><path class="cls-5" d="M477.28,426.72c-2.15-2.16-4-4.72-7.28-4.72a8,8,0,0,0-8,8c0,3.25,2.56,5.13,4.72,7.28s4,4.72,7.28,4.72a8,8,0,0,0,8-8C482,430.75,479.44,428.87,477.28,426.72Z"/><path class="cls-5" d="M477.28,506.72c-2.15-2.16-4-4.72-7.28-4.72a8,8,0,0,0-8,8c0,3.25,2.56,5.13,4.72,7.28s4,4.72,7.28,4.72a8,8,0,0,0,8-8C482,510.75,479.44,508.87,477.28,506.72Z"/><path class="cls-5" d="M477.28,586.72c-2.15-2.16-4-4.72-7.28-4.72a8,8,0,0,0-8,8c0,3.25,2.56,5.13,4.72,7.28s4,4.72,7.28,4.72a8,8,0,0,0,8-8C482,590.75,479.44,588.87,477.28,586.72Z"/><path class="cls-5" d="M477.28,666.72c-2.15-2.16-4-4.72-7.28-4.72a8,8,0,0,0-8,8c0,3.25,2.56,5.13,4.72,7.28s4,4.72,7.28,4.72a8,8,0,0,0,8-8C482,670.75,479.44,668.87,477.28,666.72Z"/><path class="cls-5" d="M477.28,746.72c-2.15-2.16-4-4.72-7.28-4.72a8,8,0,0,0-8,8c0,3.25,2.56,5.13,4.72,7.28s4,4.72,7.28,4.72a8,8,0,0,0,8-8C482,750.75,479.44,748.87,477.28,746.72Z"/><path class="cls-5" d="M477.28,826.72c-2.15-2.16-4-4.72-7.28-4.72a8,8,0,0,0-8,8c0,3.25,2.56,5.13,4.72,7.28s4,4.72,7.28,4.72a8,8,0,0,0,8-8C482,830.75,479.44,828.87,477.28,826.72Z"/><path class="cls-5" d="M477.28,906.72c-2.15-2.16-4-4.72-7.28-4.72a8,8,0,0,0-8,8c0,3.25,2.56,5.13,4.72,7.28s4,4.72,7.28,4.72a8,8,0,0,0,8-8C482,910.75,479.44,908.87,477.28,906.72Z"/><path class="cls-5" d="M477.28,986.72c-2.15-2.16-4-4.72-7.28-4.72a8,8,0,0,0-8,8c0,3.25,2.56,5.13,4.72,7.28s4,4.72,7.28,4.72a8,8,0,0,0,8-8C482,990.75,479.44,988.87,477.28,986.72Z"/><path class="cls-5" d="M397.28,26.72c-2.15-2.16-4-4.72-7.28-4.72a8,8,0,0,0-8,8c0,3.25,2.56,5.13,4.72,7.28S390.75,42,394,42a8,8,0,0,0,8-8C402,30.75,399.44,28.87,397.28,26.72Z"/><path class="cls-5" d="M397.28,106.72c-2.15-2.16-4-4.72-7.28-4.72a8,8,0,0,0-8,8c0,3.25,2.56,5.13,4.72,7.28s4,4.72,7.28,4.72a8,8,0,0,0,8-8C402,110.75,399.44,108.87,397.28,106.72Z"/><path class="cls-5" d="M397.28,186.72c-2.15-2.16-4-4.72-7.28-4.72a8,8,0,0,0-8,8c0,3.25,2.56,5.13,4.72,7.28s4,4.72,7.28,4.72a8,8,0,0,0,8-8C402,190.75,399.44,188.87,397.28,186.72Z"/><path class="cls-5" d="M397.28,266.72c-2.15-2.16-4-4.72-7.28-4.72a8,8,0,0,0-8,8c0,3.25,2.56,5.13,4.72,7.28s4,4.72,7.28,4.72a8,8,0,0,0,8-8C402,270.75,399.44,268.87,397.28,266.72Z"/><path class="cls-5" d="M397.28,346.72c-2.15-2.16-4-4.72-7.28-4.72a8,8,0,0,0-8,8c0,3.25,2.56,5.13,4.72,7.28s4,4.72,7.28,4.72a8,8,0,0,0,8-8C402,350.75,399.44,348.87,397.28,346.72Z"/><path class="cls-5" d="M397.28,426.72c-2.15-2.16-4-4.72-7.28-4.72a8,8,0,0,0-8,8c0,3.25,2.56,5.13,4.72,7.28s4,4.72,7.28,4.72a8,8,0,0,0,8-8C402,430.75,399.44,428.87,397.28,426.72Z"/><path class="cls-5" d="M397.28,506.72c-2.15-2.16-4-4.72-7.28-4.72a8,8,0,0,0-8,8c0,3.25,2.56,5.13,4.72,7.28s4,4.72,7.28,4.72a8,8,0,0,0,8-8C402,510.75,399.44,508.87,397.28,506.72Z"/><path class="cls-5" d="M397.28,586.72c-2.15-2.16-4-4.72-7.28-4.72a8,8,0,0,0-8,8c0,3.25,2.56,5.13,4.72,7.28s4,4.72,7.28,4.72a8,8,0,0,0,8-8C402,590.75,399.44,588.87,397.28,586.72Z"/><path class="cls-5" d="M397.28,666.72c-2.15-2.16-4-4.72-7.28-4.72a8,8,0,0,0-8,8c0,3.25,2.56,5.13,4.72,7.28s4,4.72,7.28,4.72a8,8,0,0,0,8-8C402,670.75,399.44,668.87,397.28,666.72Z"/><path class="cls-5" d="M397.28,746.72c-2.15-2.16-4-4.72-7.28-4.72a8,8,0,0,0-8,8c0,3.25,2.56,5.13,4.72,7.28s4,4.72,7.28,4.72a8,8,0,0,0,8-8C402,750.75,399.44,748.87,397.28,746.72Z"/><path class="cls-5" d="M397.28,826.72c-2.15-2.16-4-4.72-7.28-4.72a8,8,0,0,0-8,8c0,3.25,2.56,5.13,4.72,7.28s4,4.72,7.28,4.72a8,8,0,0,0,8-8C402,830.75,399.44,828.87,397.28,826.72Z"/><path class="cls-5" d="M397.28,906.72c-2.15-2.16-4-4.72-7.28-4.72a8,8,0,0,0-8,8c0,3.25,2.56,5.13,4.72,7.28s4,4.72,7.28,4.72a8,8,0,0,0,8-8C402,910.75,399.44,908.87,397.28,906.72Z"/><path class="cls-5" d="M397.28,986.72c-2.15-2.16-4-4.72-7.28-4.72a8,8,0,0,0-8,8c0,3.25,2.56,5.13,4.72,7.28s4,4.72,7.28,4.72a8,8,0,0,0,8-8C402,990.75,399.44,988.87,397.28,986.72Z"/><path class="cls-5" d="M317.28,26.72c-2.15-2.16-4-4.72-7.28-4.72a8,8,0,0,0-8,8c0,3.25,2.56,5.13,4.72,7.28S310.75,42,314,42a8,8,0,0,0,8-8C322,30.75,319.44,28.87,317.28,26.72Z"/><path class="cls-5" d="M317.28,106.72c-2.15-2.16-4-4.72-7.28-4.72a8,8,0,0,0-8,8c0,3.25,2.56,5.13,4.72,7.28s4,4.72,7.28,4.72a8,8,0,0,0,8-8C322,110.75,319.44,108.87,317.28,106.72Z"/><path class="cls-5" d="M317.28,186.72c-2.15-2.16-4-4.72-7.28-4.72a8,8,0,0,0-8,8c0,3.25,2.56,5.13,4.72,7.28s4,4.72,7.28,4.72a8,8,0,0,0,8-8C322,190.75,319.44,188.87,317.28,186.72Z"/><path class="cls-5" d="M317.28,266.72c-2.15-2.16-4-4.72-7.28-4.72a8,8,0,0,0-8,8c0,3.25,2.56,5.13,4.72,7.28s4,4.72,7.28,4.72a8,8,0,0,0,8-8C322,270.75,319.44,268.87,317.28,266.72Z"/><path class="cls-5" d="M317.28,346.72c-2.15-2.16-4-4.72-7.28-4.72a8,8,0,0,0-8,8c0,3.25,2.56,5.13,4.72,7.28s4,4.72,7.28,4.72a8,8,0,0,0,8-8C322,350.75,319.44,348.87,317.28,346.72Z"/><path class="cls-5" d="M317.28,426.72c-2.15-2.16-4-4.72-7.28-4.72a8,8,0,0,0-8,8c0,3.25,2.56,5.13,4.72,7.28s4,4.72,7.28,4.72a8,8,0,0,0,8-8C322,430.75,319.44,428.87,317.28,426.72Z"/><path class="cls-5" d="M317.28,506.72c-2.15-2.16-4-4.72-7.28-4.72a8,8,0,0,0-8,8c0,3.25,2.56,5.13,4.72,7.28s4,4.72,7.28,4.72a8,8,0,0,0,8-8C322,510.75,319.44,508.87,317.28,506.72Z"/><path class="cls-5" d="M317.28,586.72c-2.15-2.16-4-4.72-7.28-4.72a8,8,0,0,0-8,8c0,3.25,2.56,5.13,4.72,7.28s4,4.72,7.28,4.72a8,8,0,0,0,8-8C322,590.75,319.44,588.87,317.28,586.72Z"/><path class="cls-5" d="M317.28,666.72c-2.15-2.16-4-4.72-7.28-4.72a8,8,0,0,0-8,8c0,3.25,2.56,5.13,4.72,7.28s4,4.72,7.28,4.72a8,8,0,0,0,8-8C322,670.75,319.44,668.87,317.28,666.72Z"/><path class="cls-5" d="M317.28,746.72c-2.15-2.16-4-4.72-7.28-4.72a8,8,0,0,0-8,8c0,3.25,2.56,5.13,4.72,7.28s4,4.72,7.28,4.72a8,8,0,0,0,8-8C322,750.75,319.44,748.87,317.28,746.72Z"/><path class="cls-5" d="M317.28,826.72c-2.15-2.16-4-4.72-7.28-4.72a8,8,0,0,0-8,8c0,3.25,2.56,5.13,4.72,7.28s4,4.72,7.28,4.72a8,8,0,0,0,8-8C322,830.75,319.44,828.87,317.28,826.72Z"/><path class="cls-5" d="M317.28,906.72c-2.15-2.16-4-4.72-7.28-4.72a8,8,0,0,0-8,8c0,3.25,2.56,5.13,4.72,7.28s4,4.72,7.28,4.72a8,8,0,0,0,8-8C322,910.75,319.44,908.87,317.28,906.72Z"/><path class="cls-5" d="M317.28,986.72c-2.15-2.16-4-4.72-7.28-4.72a8,8,0,0,0-8,8c0,3.25,2.56,5.13,4.72,7.28s4,4.72,7.28,4.72a8,8,0,0,0,8-8C322,990.75,319.44,988.87,317.28,986.72Z"/><path class="cls-5" d="M237.28,26.72c-2.15-2.16-4-4.72-7.28-4.72a8,8,0,0,0-8,8c0,3.25,2.56,5.13,4.72,7.28S230.75,42,234,42a8,8,0,0,0,8-8C242,30.75,239.44,28.87,237.28,26.72Z"/><path class="cls-5" d="M237.28,106.72c-2.15-2.16-4-4.72-7.28-4.72a8,8,0,0,0-8,8c0,3.25,2.56,5.13,4.72,7.28s4,4.72,7.28,4.72a8,8,0,0,0,8-8C242,110.75,239.44,108.87,237.28,106.72Z"/><path class="cls-5" d="M237.28,186.72c-2.15-2.16-4-4.72-7.28-4.72a8,8,0,0,0-8,8c0,3.25,2.56,5.13,4.72,7.28s4,4.72,7.28,4.72a8,8,0,0,0,8-8C242,190.75,239.44,188.87,237.28,186.72Z"/><path class="cls-5" d="M237.28,266.72c-2.15-2.16-4-4.72-7.28-4.72a8,8,0,0,0-8,8c0,3.25,2.56,5.13,4.72,7.28s4,4.72,7.28,4.72a8,8,0,0,0,8-8C242,270.75,239.44,268.87,237.28,266.72Z"/><path class="cls-5" d="M237.28,346.72c-2.15-2.16-4-4.72-7.28-4.72a8,8,0,0,0-8,8c0,3.25,2.56,5.13,4.72,7.28s4,4.72,7.28,4.72a8,8,0,0,0,8-8C242,350.75,239.44,348.87,237.28,346.72Z"/><path class="cls-5" d="M237.28,426.72c-2.15-2.16-4-4.72-7.28-4.72a8,8,0,0,0-8,8c0,3.25,2.56,5.13,4.72,7.28s4,4.72,7.28,4.72a8,8,0,0,0,8-8C242,430.75,239.44,428.87,237.28,426.72Z"/><path class="cls-5" d="M237.28,506.72c-2.15-2.16-4-4.72-7.28-4.72a8,8,0,0,0-8,8c0,3.25,2.56,5.13,4.72,7.28s4,4.72,7.28,4.72a8,8,0,0,0,8-8C242,510.75,239.44,508.87,237.28,506.72Z"/><path class="cls-5" d="M237.28,586.72c-2.15-2.16-4-4.72-7.28-4.72a8,8,0,0,0-8,8c0,3.25,2.56,5.13,4.72,7.28s4,4.72,7.28,4.72a8,8,0,0,0,8-8C242,590.75,239.44,588.87,237.28,586.72Z"/><path class="cls-5" d="M237.28,666.72c-2.15-2.16-4-4.72-7.28-4.72a8,8,0,0,0-8,8c0,3.25,2.56,5.13,4.72,7.28s4,4.72,7.28,4.72a8,8,0,0,0,8-8C242,670.75,239.44,668.87,237.28,666.72Z"/><path class="cls-5" d="M237.28,746.72c-2.15-2.16-4-4.72-7.28-4.72a8,8,0,0,0-8,8c0,3.25,2.56,5.13,4.72,7.28s4,4.72,7.28,4.72a8,8,0,0,0,8-8C242,750.75,239.44,748.87,237.28,746.72Z"/><path class="cls-5" d="M237.28,826.72c-2.15-2.16-4-4.72-7.28-4.72a8,8,0,0,0-8,8c0,3.25,2.56,5.13,4.72,7.28s4,4.72,7.28,4.72a8,8,0,0,0,8-8C242,830.75,239.44,828.87,237.28,826.72Z"/><path class="cls-5" d="M237.28,906.72c-2.15-2.16-4-4.72-7.28-4.72a8,8,0,0,0-8,8c0,3.25,2.56,5.13,4.72,7.28s4,4.72,7.28,4.72a8,8,0,0,0,8-8C242,910.75,239.44,908.87,237.28,906.72Z"/><path class="cls-5" d="M237.28,986.72c-2.15-2.16-4-4.72-7.28-4.72a8,8,0,0,0-8,8c0,3.25,2.56,5.13,4.72,7.28s4,4.72,7.28,4.72a8,8,0,0,0,8-8C242,990.75,239.44,988.87,237.28,986.72Z"/><path class="cls-5" d="M157.28,26.72c-2.15-2.16-4-4.72-7.28-4.72a8,8,0,0,0-8,8c0,3.25,2.56,5.13,4.72,7.28S150.75,42,154,42a8,8,0,0,0,8-8C162,30.75,159.44,28.87,157.28,26.72Z"/><path class="cls-5" d="M157.28,106.72c-2.15-2.16-4-4.72-7.28-4.72a8,8,0,0,0-8,8c0,3.25,2.56,5.13,4.72,7.28s4,4.72,7.28,4.72a8,8,0,0,0,8-8C162,110.75,159.44,108.87,157.28,106.72Z"/><path class="cls-5" d="M157.28,186.72c-2.15-2.16-4-4.72-7.28-4.72a8,8,0,0,0-8,8c0,3.25,2.56,5.13,4.72,7.28s4,4.72,7.28,4.72a8,8,0,0,0,8-8C162,190.75,159.44,188.87,157.28,186.72Z"/><path class="cls-5" d="M157.28,266.72c-2.15-2.16-4-4.72-7.28-4.72a8,8,0,0,0-8,8c0,3.25,2.56,5.13,4.72,7.28s4,4.72,7.28,4.72a8,8,0,0,0,8-8C162,270.75,159.44,268.87,157.28,266.72Z"/><path class="cls-5" d="M157.28,346.72c-2.15-2.16-4-4.72-7.28-4.72a8,8,0,0,0-8,8c0,3.25,2.56,5.13,4.72,7.28s4,4.72,7.28,4.72a8,8,0,0,0,8-8C162,350.75,159.44,348.87,157.28,346.72Z"/><path class="cls-5" d="M157.28,426.72c-2.15-2.16-4-4.72-7.28-4.72a8,8,0,0,0-8,8c0,3.25,2.56,5.13,4.72,7.28s4,4.72,7.28,4.72a8,8,0,0,0,8-8C162,430.75,159.44,428.87,157.28,426.72Z"/><path class="cls-5" d="M157.28,506.72c-2.15-2.16-4-4.72-7.28-4.72a8,8,0,0,0-8,8c0,3.25,2.56,5.13,4.72,7.28s4,4.72,7.28,4.72a8,8,0,0,0,8-8C162,510.75,159.44,508.87,157.28,506.72Z"/><path class="cls-5" d="M157.28,586.72c-2.15-2.16-4-4.72-7.28-4.72a8,8,0,0,0-8,8c0,3.25,2.56,5.13,4.72,7.28s4,4.72,7.28,4.72a8,8,0,0,0,8-8C162,590.75,159.44,588.87,157.28,586.72Z"/><path class="cls-5" d="M157.28,666.72c-2.15-2.16-4-4.72-7.28-4.72a8,8,0,0,0-8,8c0,3.25,2.56,5.13,4.72,7.28s4,4.72,7.28,4.72a8,8,0,0,0,8-8C162,670.75,159.44,668.87,157.28,666.72Z"/><path class="cls-5" d="M157.28,746.72c-2.15-2.16-4-4.72-7.28-4.72a8,8,0,0,0-8,8c0,3.25,2.56,5.13,4.72,7.28s4,4.72,7.28,4.72a8,8,0,0,0,8-8C162,750.75,159.44,748.87,157.28,746.72Z"/><path class="cls-5" d="M157.28,826.72c-2.15-2.16-4-4.72-7.28-4.72a8,8,0,0,0-8,8c0,3.25,2.56,5.13,4.72,7.28s4,4.72,7.28,4.72a8,8,0,0,0,8-8C162,830.75,159.44,828.87,157.28,826.72Z"/><path class="cls-5" d="M157.28,906.72c-2.15-2.16-4-4.72-7.28-4.72a8,8,0,0,0-8,8c0,3.25,2.56,5.13,4.72,7.28s4,4.72,7.28,4.72a8,8,0,0,0,8-8C162,910.75,159.44,908.87,157.28,906.72Z"/><path class="cls-5" d="M157.28,986.72c-2.15-2.16-4-4.72-7.28-4.72a8,8,0,0,0-8,8c0,3.25,2.56,5.13,4.72,7.28s4,4.72,7.28,4.72a8,8,0,0,0,8-8C162,990.75,159.44,988.87,157.28,986.72Z"/><path class="cls-5" d="M77.28,26.72C75.13,24.56,73.25,22,70,22a8,8,0,0,0-8,8c0,3.25,2.56,5.13,4.72,7.28S70.75,42,74,42a8,8,0,0,0,8-8C82,30.75,79.44,28.87,77.28,26.72Z"/><path class="cls-5" d="M77.28,106.72c-2.15-2.16-4-4.72-7.28-4.72a8,8,0,0,0-8,8c0,3.25,2.56,5.13,4.72,7.28S70.75,122,74,122a8,8,0,0,0,8-8C82,110.75,79.44,108.87,77.28,106.72Z"/><path class="cls-5" d="M77.28,186.72c-2.15-2.16-4-4.72-7.28-4.72a8,8,0,0,0-8,8c0,3.25,2.56,5.13,4.72,7.28S70.75,202,74,202a8,8,0,0,0,8-8C82,190.75,79.44,188.87,77.28,186.72Z"/><path class="cls-5" d="M77.28,266.72c-2.15-2.16-4-4.72-7.28-4.72a8,8,0,0,0-8,8c0,3.25,2.56,5.13,4.72,7.28S70.75,282,74,282a8,8,0,0,0,8-8C82,270.75,79.44,268.87,77.28,266.72Z"/><path class="cls-5" d="M77.28,346.72c-2.15-2.16-4-4.72-7.28-4.72a8,8,0,0,0-8,8c0,3.25,2.56,5.13,4.72,7.28S70.75,362,74,362a8,8,0,0,0,8-8C82,350.75,79.44,348.87,77.28,346.72Z"/><path class="cls-5" d="M77.28,426.72c-2.15-2.16-4-4.72-7.28-4.72a8,8,0,0,0-8,8c0,3.25,2.56,5.13,4.72,7.28S70.75,442,74,442a8,8,0,0,0,8-8C82,430.75,79.44,428.87,77.28,426.72Z"/><path class="cls-5" d="M77.28,506.72c-2.15-2.16-4-4.72-7.28-4.72a8,8,0,0,0-8,8c0,3.25,2.56,5.13,4.72,7.28S70.75,522,74,522a8,8,0,0,0,8-8C82,510.75,79.44,508.87,77.28,506.72Z"/><path class="cls-5" d="M77.28,586.72c-2.15-2.16-4-4.72-7.28-4.72a8,8,0,0,0-8,8c0,3.25,2.56,5.13,4.72,7.28S70.75,602,74,602a8,8,0,0,0,8-8C82,590.75,79.44,588.87,77.28,586.72Z"/><path class="cls-5" d="M77.28,666.72c-2.15-2.16-4-4.72-7.28-4.72a8,8,0,0,0-8,8c0,3.25,2.56,5.13,4.72,7.28S70.75,682,74,682a8,8,0,0,0,8-8C82,670.75,79.44,668.87,77.28,666.72Z"/><path class="cls-5" d="M77.28,746.72c-2.15-2.16-4-4.72-7.28-4.72a8,8,0,0,0-8,8c0,3.25,2.56,5.13,4.72,7.28S70.75,762,74,762a8,8,0,0,0,8-8C82,750.75,79.44,748.87,77.28,746.72Z"/><path class="cls-5" d="M77.28,826.72c-2.15-2.16-4-4.72-7.28-4.72a8,8,0,0,0-8,8c0,3.25,2.56,5.13,4.72,7.28S70.75,842,74,842a8,8,0,0,0,8-8C82,830.75,79.44,828.87,77.28,826.72Z"/><path class="cls-5" d="M77.28,906.72c-2.15-2.16-4-4.72-7.28-4.72a8,8,0,0,0-8,8c0,3.25,2.56,5.13,4.72,7.28S70.75,922,74,922a8,8,0,0,0,8-8C82,910.75,79.44,908.87,77.28,906.72Z"/><path class="cls-5" d="M77.28,986.72c-2.15-2.16-4-4.72-7.28-4.72a8,8,0,0,0-8,8c0,3.25,2.56,5.13,4.72,7.28s4,4.72,7.28,4.72a8,8,0,0,0,8-8C82,990.75,79.44,988.87,77.28,986.72Z"/><path class="cls-5" d="M-2.72,26.72C-4.87,24.56-6.75,22-10,22a8,8,0,0,0-8,8c0,3.25,2.56,5.13,4.72,7.28S-9.25,42-6,42a8,8,0,0,0,8-8C2,30.75-.56,28.87-2.72,26.72Z"/><path class="cls-5" d="M-2.72,106.72c-2.15-2.16-4-4.72-7.28-4.72a8,8,0,0,0-8,8c0,3.25,2.56,5.13,4.72,7.28S-9.25,122-6,122a8,8,0,0,0,8-8C2,110.75-.56,108.87-2.72,106.72Z"/><path class="cls-5" d="M-2.72,186.72c-2.15-2.16-4-4.72-7.28-4.72a8,8,0,0,0-8,8c0,3.25,2.56,5.13,4.72,7.28S-9.25,202-6,202a8,8,0,0,0,8-8C2,190.75-.56,188.87-2.72,186.72Z"/><path class="cls-5" d="M-2.72,266.72c-2.15-2.16-4-4.72-7.28-4.72a8,8,0,0,0-8,8c0,3.25,2.56,5.13,4.72,7.28S-9.25,282-6,282a8,8,0,0,0,8-8C2,270.75-.56,268.87-2.72,266.72Z"/><path class="cls-5" d="M-2.72,346.72c-2.15-2.16-4-4.72-7.28-4.72a8,8,0,0,0-8,8c0,3.25,2.56,5.13,4.72,7.28S-9.25,362-6,362a8,8,0,0,0,8-8C2,350.75-.56,348.87-2.72,346.72Z"/><path class="cls-5" d="M-2.72,426.72c-2.15-2.16-4-4.72-7.28-4.72a8,8,0,0,0-8,8c0,3.25,2.56,5.13,4.72,7.28S-9.25,442-6,442a8,8,0,0,0,8-8C2,430.75-.56,428.87-2.72,426.72Z"/><path class="cls-5" d="M-2.72,506.72c-2.15-2.16-4-4.72-7.28-4.72a8,8,0,0,0-8,8c0,3.25,2.56,5.13,4.72,7.28S-9.25,522-6,522a8,8,0,0,0,8-8C2,510.75-.56,508.87-2.72,506.72Z"/><path class="cls-5" d="M-2.72,586.72c-2.15-2.16-4-4.72-7.28-4.72a8,8,0,0,0-8,8c0,3.25,2.56,5.13,4.72,7.28S-9.25,602-6,602a8,8,0,0,0,8-8C2,590.75-.56,588.87-2.72,586.72Z"/><path class="cls-5" d="M-2.72,666.72c-2.15-2.16-4-4.72-7.28-4.72a8,8,0,0,0-8,8c0,3.25,2.56,5.13,4.72,7.28S-9.25,682-6,682a8,8,0,0,0,8-8C2,670.75-.56,668.87-2.72,666.72Z"/><path class="cls-5" d="M-2.72,746.72c-2.15-2.16-4-4.72-7.28-4.72a8,8,0,0,0-8,8c0,3.25,2.56,5.13,4.72,7.28S-9.25,762-6,762a8,8,0,0,0,8-8C2,750.75-.56,748.87-2.72,746.72Z"/><path class="cls-5" d="M-2.72,826.72c-2.15-2.16-4-4.72-7.28-4.72a8,8,0,0,0-8,8c0,3.25,2.56,5.13,4.72,7.28S-9.25,842-6,842a8,8,0,0,0,8-8C2,830.75-.56,828.87-2.72,826.72Z"/><path class="cls-5" d="M-2.72,906.72c-2.15-2.16-4-4.72-7.28-4.72a8,8,0,0,0-8,8c0,3.25,2.56,5.13,4.72,7.28S-9.25,922-6,922a8,8,0,0,0,8-8C2,910.75-.56,908.87-2.72,906.72Z"/><path class="cls-5" d="M-2.72,986.72c-2.15-2.16-4-4.72-7.28-4.72a8,8,0,0,0-8,8c0,3.25,2.56,5.13,4.72,7.28s4,4.72,7.28,4.72a8,8,0,0,0,8-8C2,990.75-.56,988.87-2.72,986.72Z"/></g><g class="cls-6"><rect x="280" y="280" width="500" height="500"/><rect x="316" y="316" width="196" height="196"/><rect x="548" y="316" width="196" height="196"/><rect x="316" y="548" width="196" height="196"/><rect x="548" y="548" width="196" height="196"/></g><rect x="262" y="262" width="500" height="500"/><rect class="cls-7" x="298" y="298" width="196" height="196"/><rect class="cls-8" x="530" y="298" width="196" height="196"/><rect class="cls-8" x="298" y="530" width="196" height="196"/><rect class="cls-9" x="530" y="530" width="196" height="196"/></g></g></svg>